name analog
datacolumns 19
datarows 56
range 0.3645 0.392
endheader
time	ground_force_vx	ground_force_vy	ground_force_vz	ground_force_px	ground_force_py	ground_force_pz	l_ground_force_vx	l_ground_force_vy	l_ground_force_vz	l_ground_force_px	l_ground_force_py	l_ground_force_pz	ground_torque_x	ground_torque_y	ground_torque_z	l_ground_torque_x	l_ground_torque_y	l_ground_torque_z
0.3645	-0.0	-0.0	-0.0	-2.18293833732605	-12.24757480621338	-775.3341064453125	-0.0	-0.0	-0.0	-34.88880157470703	15.94551944732666	75.12261962890625	-0.0	-0.0	-0.0	-0.0	-0.0	-0.0
0.365	-0.0	-0.0	-0.0	-0.2309186905622482	-11.010351181030272	-770.4932861328125	-0.0	-0.0	-0.0	-34.73057174682617	16.125370025634766	75.4547119140625	-0.0	-0.0	-0.0	-0.0	-0.0	-0.0
0.3655	-0.0	-0.0	-0.0	1.1855990886688232	-9.531944274902344	-765.1329956054688	-0.0	-0.0	-0.0	-34.693809509277344	16.178361892700195	76.8585205078125	-0.0	-0.0	-0.0	-0.0	-0.0	-0.0
0.366	-0.0	-0.0	-0.0	2.0041046142578125	-9.505156517028809	-762.7675170898438	-0.0	-0.0	-0.0	-35.08387756347656	15.977734565734863	75.02335357666016	-0.0	-0.0	-0.0	-0.0	-0.0	-0.0
0.3665	-0.0	-0.0	-0.0	2.7655258178710938	-9.53695297241211	-761.8724365234375	-0.0	-0.0	-0.0	-34.799346923828125	15.99827003479004	76.44389343261719	-0.0	-0.0	-0.0	-0.0	-0.0	-0.0
0.367	-0.0	-0.0	-0.0	2.639723300933838	-9.310656547546388	-759.0471801757812	-0.0	-0.0	-0.0	-34.88880157470703	16.137292861938477	77.27330017089844	-0.0	-0.0	-0.0	-0.0	-0.0	-0.0
0.3675	-0.0	-0.0	-0.0	3.142820358276367	-9.715213775634766	-756.6561889648438	-0.0	-0.0	-0.0	-34.98212432861328	16.247739791870117	75.7905044555664	-0.0	-0.0	-0.0	-0.0	-0.0	-0.0
0.368	-0.0	-0.0	-0.0	4.131875038146973	-9.53695297241211	-758.5664672851562	-0.0	-0.0	-0.0	-34.8522834777832	16.36165428161621	76.07777404785156	-0.0	-0.0	-0.0	-0.0	-0.0	-0.0
0.3685	-0.0	-0.0	-0.0	4.963357448577881	-8.321529388427734	-759.9629516601562	-0.0	-0.0	-0.0	-35.07129669189453	16.284503936767578	75.597900390625	-0.0	-0.0	-0.0	-0.0	-0.0	-0.0
0.369	-0.0	-0.0	-0.0	5.960813045501709	-8.18759536743164	-760.4609375	-0.0	-0.0	-0.0	-34.85572814941406	16.30113410949707	75.4547119140625	-0.0	-0.0	-0.0	-0.0	-0.0	-0.0
0.3695	-0.0	-0.0	-0.0	5.867837905883789	-7.830810070037842	-762.7892456054688	-0.0	-0.0	-0.0	-35.385929107666016	16.267797470092773	75.72794342041016	-0.0	-0.0	-0.0	-0.0	-0.0	-0.0
0.37	-0.0	-0.0	-0.0	4.988598823547363	-7.737955570220947	-764.6488037109375	-0.0	-0.0	-0.0	-34.902305603027344	16.12445068359375	77.14420318603516	-0.0	-0.0	-0.0	-0.0	-0.0	-0.0
0.3705	-0.0	-0.0	-0.0	3.637744903564453	-8.11086654663086	-766.7401123046875	-0.0	-0.0	-0.0	-35.067718505859375	16.141145706176758	76.56156921386719	-0.0	-0.0	-0.0	-0.0	-0.0	-0.0
0.371	-0.0	-0.0	-0.0	1.8536477088928225	-8.272587776184082	-767.2379760742188	-0.0	-0.0	-0.0	-35.02862548828125	15.941509246826172	75.52057647705078	-0.0	-0.0	-0.0	-0.0	-0.0	-0.0
0.3715	-0.0	-0.0	-0.0	0.4626274108886719	-8.312017440795898	-766.6223754882812	-0.0	-0.0	-0.0	-34.958763122558594	16.19184112548828	74.8847885131836	-0.0	-0.0	-0.0	-0.0	-0.0	-0.0
0.372	-0.0	-0.0	-0.0	-0.5911731123924255	-7.893381118774414	-766.19091796875	-0.0	-0.0	-0.0	-34.49717330932617	16.15804672241211	75.4449462890625	-0.0	-0.0	-0.0	-0.0	-0.0	-0.0
0.3725	-0.0	-0.0	-0.0	-0.6439904570579529	-7.1137213706970215	-765.7823486328125	-0.0	-0.0	-0.0	-34.87183380126953	16.04873275756836	76.01443481445312	-0.0	-0.0	-0.0	-0.0	-0.0	-0.0
0.373	-0.0	-0.0	-0.0	-0.4654788672924042	-6.595649719238281	-764.5576782226562	-0.0	-0.0	-0.0	-34.88880157470703	16.138824462890625	76.29025268554688	-0.0	-0.0	-0.0	-0.0	-0.0	-0.0
0.3735	-0.0	-0.0	-0.0	-1.1092183589935305	-6.3812360763549805	-764.0048217773438	-0.0	-0.0	-0.0	-34.85261535644531	16.068172454833984	74.76071166992188	-0.0	-0.0	-0.0	-0.0	-0.0	-0.0
0.374	-0.0	-0.0	-0.0	-1.212799310684204	-6.31135892868042	-763.2127075195312	-0.0	-0.0	-0.0	-34.81833267211914	16.156343460083008	76.28411102294922	-0.0	-0.0	-0.0	-0.0	-0.0	-0.0
0.3745	-0.0	-0.0	-0.0	-0.6457235813140869	-6.294308662414551	-760.6738891601562	-0.0	-0.0	-0.0	-34.69428634643555	16.215160369873047	76.15019989013672	-0.0	-0.0	-0.0	-0.0	-0.0	-0.0
0.375	-0.0	-0.0	-0.0	-0.5863301753997803	-6.453450679779053	-759.9677124023438	-0.0	-0.0	-0.0	-34.94061279296875	16.267135620117188	76.507568359375	-0.0	-0.0	-0.0	-0.0	-0.0	-0.0
0.3755	-0.0	-0.0	-0.0	0.1973796784877777	-5.812417507171631	-759.2618408203125	-0.0	-0.0	-0.0	-34.728599548339844	16.22942352294922	74.46990203857422	-0.0	-0.0	-0.0	-0.0	-0.0	-0.0
0.376	-0.0	-0.0	-0.0	1.622962236404419	-6.18431282043457	-757.3538208007812	-0.0	-0.0	-0.0	-34.799346923828125	16.427034378051758	75.3956069946289	-0.0	-0.0	-0.0	-0.0	-0.0	-0.0
0.3765	-0.0	-0.0	-0.0	2.447852611541748	-5.990512371063232	-757.5772705078125	-0.0	-0.0	-0.0	-34.673885345458984	16.55550765991211	76.015380859375	-0.0	-0.0	-0.0	-0.0	-0.0	-0.0
0.377	-0.0	-0.0	-0.0	3.745445966720581	-5.63248348236084	-754.81396484375	-0.0	-0.0	-0.0	-34.8703727722168	16.26687240600586	75.03144836425781	-0.0	-0.0	-0.0	-0.0	-0.0	-0.0
0.3775	-0.0	-0.0	-0.0	5.120924949645996	-5.097776412963867	-754.7503051757812	-0.0	-0.0	-0.0	-34.69227981567383	16.01459503173828	74.47371673583984	-0.0	-0.0	-0.0	-0.0	-0.0	-0.0
0.378	-0.0	-0.0	-0.0	6.584193706512451	-4.457664012908936	-753.4749755859375	-0.0	-0.0	-0.0	-34.81697463989258	15.97912883758545	75.3880844116211	-0.0	-0.0	-0.0	-0.0	-0.0	-0.0
0.3785	-0.0	-0.0	-0.0	8.066734313964844	-3.8306963443756095	-754.1158447265625	-0.0	-0.0	-0.0	-34.72805404663086	16.140644073486328	76.9974594116211	-0.0	-0.0	-0.0	-0.0	-0.0	-0.0
0.379	-0.0	-0.0	-0.0	9.4387788772583	-3.2086944580078125	-756.5838623046875	-0.0	-0.0	-0.0	-34.81739807128906	16.122722625732422	75.87542724609375	-0.0	-0.0	-0.0	-0.0	-0.0	-0.0
0.3795	-0.0	-0.0	-0.0	10.562652587890623	-2.905523538589477	-761.1077880859375	-0.0	-0.0	-0.0	-35.08555603027344	16.05047035217285	74.26191711425781	-0.0	-0.0	-0.0	-0.0	-0.0	-0.0
0.38	-0.0	-0.0	-0.0	10.45574188232422	-3.297375202178955	-766.0472412109375	-0.0	-0.0	-0.0	-34.69202423095703	16.3384952545166	75.59524536132812	-0.0	-0.0	-0.0	-0.0	-0.0	-0.0
0.3805	-0.0	-0.0	-0.0	11.293736457824709	-3.618642091751098	-770.2152099609375	-0.0	-0.0	-0.0	-35.10345458984375	16.086475372314453	74.82337188720703	-0.0	-0.0	-0.0	-0.0	-0.0	-0.0
0.381	-0.0	-0.0	-0.0	11.757869720458984	-3.779154300689697	-769.720458984375	-0.0	-0.0	-0.0	-34.76363754272461	16.05088233947754	75.5240249633789	-0.0	-0.0	-0.0	-0.0	-0.0	-0.0
0.3815	-0.0	-0.0	-0.0	11.775787353515623	-2.976958990097046	-768.5196533203125	-0.0	-0.0	-0.0	-34.62042999267578	16.248613357543945	76.01850128173828	-0.0	-0.0	-0.0	-0.0	-0.0	-0.0
0.382	-0.0	-0.0	-0.0	11.187134742736816	-1.4085333347320557	-767.8833618164062	-0.0	-0.0	-0.0	-34.853153228759766	16.049774169921875	75.52332305908203	-0.0	-0.0	-0.0	-0.0	-0.0	-0.0
0.3825	-0.0	-0.0	-0.0	10.669649124145508	0.3561627864837646	-767.247802734375	-0.0	-0.0	-0.0	-34.76373291015625	15.942100524902344	76.57910919189453	-0.0	-0.0	-0.0	-0.0	-0.0	-0.0
0.383	-0.0	-0.0	-0.0	9.812710762023926	1.3549599647521973	-766.8945922851562	-0.0	-0.0	-0.0	-35.01480484008789	16.266128540039062	75.1754379272461	-0.0	-0.0	-0.0	-0.0	-0.0	-0.0
0.3835	-0.0	-0.0	-0.0	8.6178617477417	2.2108137607574463	-767.5982666015625	-0.0	-0.0	-0.0	-34.870460510253906	16.35602378845215	76.8585205078125	-0.0	-0.0	-0.0	-0.0	-0.0	-0.0
0.384	-0.0	-0.0	-0.0	8.546859741210938	1.372443914413452	-768.80078125	-0.0	-0.0	-0.0	-34.70856094360352	16.177339553833008	76.01727294921875	-0.0	-0.0	-0.0	-0.0	-0.0	-0.0
0.3845	-0.0	-0.0	-0.0	8.707128524780273	-0.5884429812431335	-772.6856079101562	-0.0	-0.0	-0.0	-34.87034606933594	16.160253524780273	75.04244995117188	-0.0	-0.0	-0.0	-0.0	-0.0	-0.0
0.385	-0.0	-0.0	-0.0	9.044625282287598	-1.6397794485092163	-774.4468994140625	-0.0	-0.0	-0.0	-34.92426681518555	16.106176376342773	76.44115447998047	-0.0	-0.0	-0.0	-0.0	-0.0	-0.0
0.3855	-0.0	-0.0	-0.0	9.830224990844728	-2.299049139022827	-776.8555908203125	-0.0	-0.0	-0.0	-35.067718505859375	16.121477127075195	76.1566162109375	-0.0	-0.0	-0.0	-0.0	-0.0	-0.0
0.386	-0.0	-0.0	-0.0	9.562557220458984	-3.0828332901000977	-777.4164428710938	-0.0	-0.0	-0.0	-34.92236328125	15.943365097045898	74.88446807861328	-0.0	-0.0	-0.0	-0.0	-0.0	-0.0
0.3865	-0.0	-0.0	-0.0	9.777779579162598	-3.459181547164917	-777.8483276367188	-0.0	-0.0	-0.0	-35.2092170715332	16.230112075805664	75.95245361328125	-0.0	-0.0	-0.0	-0.0	-0.0	-0.0
0.387	-0.0	-0.0	-0.0	9.651541709899902	-3.7938506603240967	-776.429443359375	-0.0	-0.0	-0.0	-34.78055953979492	15.725794792175291	76.86727142333984	-0.0	-0.0	-0.0	-0.0	-0.0	-0.0
0.3875	-0.0	-0.0	-0.0	8.885730743408203	-3.975579500198364	-776.7161865234375	-0.0	-0.0	-0.0	-34.72638320922852	15.998003959655762	76.16573333740234	-0.0	-0.0	-0.0	-0.0	-0.0	-0.0
0.388	-0.0	-0.0	-0.0	8.20937442779541	-4.543644428253174	-776.0680541992188	-0.0	-0.0	-0.0	-34.76406478881836	16.121042251586914	75.103759765625	-0.0	-0.0	-0.0	-0.0	-0.0	-0.0
0.3885	-0.0	-0.0	-0.0	7.103792190551758	-5.490871429443359	-776.9217529296875	-0.0	-0.0	-0.0	-34.7451286315918	16.01459503173828	75.38027954101562	-0.0	-0.0	-0.0	-0.0	-0.0	-0.0
0.389	-0.0	-0.0	-0.0	6.049883365631104	-5.385355472564697	-777.7115478515625	-0.0	-0.0	-0.0	-34.56618118286133	16.49985694885254	76.29475402832031	-0.0	-0.0	-0.0	-0.0	-0.0	-0.0
0.3895	-0.0	-0.0	-0.0	5.1038360595703125	-5.131922721862793	-776.0010375976562	-0.0	-0.0	-0.0	-34.65561294555664	16.336076736450195	76.01858520507812	-0.0	-0.0	-0.0	-0.0	-0.0	-0.0
0.39	-0.0	-0.0	-0.0	4.017148971557617	-5.653006553649902	-774.67333984375	-0.0	-0.0	-0.0	-34.90160369873047	16.088491439819336	75.94355010986328	-0.0	-0.0	-0.0	-0.0	-0.0	-0.0
0.3905	-0.0	-0.0	-0.0	1.784210205078125	-5.966013431549072	-775.2412719726562	-0.0	-0.0	-0.0	-34.63966751098633	16.01459503173828	76.08113098144531	-0.0	-0.0	-0.0	-0.0	-0.0	-0.0
0.391	-0.0	-0.0	-0.0	0.487046480178833	-6.9711761474609375	-776.0116577148438	-0.0	-0.0	-0.0	-34.88880157470703	15.959918022155762	74.61514282226562	-0.0	-0.0	-0.0	-0.0	-0.0	-0.0
0.3915	-0.0	-0.0	-0.0	-1.067387938499451	-8.219077110290527	-776.1383056640625	-0.0	-0.0	-0.0	-34.96255874633789	16.049848556518555	75.53062438964844	-0.0	-0.0	-0.0	-0.0	-0.0	-0.0
0.392	-0.0	-0.0	-0.0	-2.797218084335327	-9.858487129211426	-779.3295288085938	-0.0	-0.0	-0.0	-34.76432800292969	16.284503936767578	75.103759765625	-0.0	-0.0	-0.0	-0.0	-0.0	-0.0
